<?xml version="1.0" standalone="no"?>
<!DOCTYPE svg PUBLIC "-//W3C//DTD SVG 20010904//EN"
 "http://www.w3.org/TR/2001/REC-SVG-20010904/DTD/svg10.dtd">
<svg version="1.0" xmlns="http://www.w3.org/2000/svg"
 width="32.000000pt" height="32.000000pt" viewBox="0 0 32.000000 32.000000"
 preserveAspectRatio="xMidYMid meet">

<g transform="translate(0.000000,32.000000) scale(0.100000,-0.100000)"
fill="#000000" stroke="none">
<path d="M46 258 c-48 -77 -29 -95 103 -92 l101 2 0 -54 c0 -51 -1 -54 -25
-54 -20 0 -25 5 -25 24 0 41 -11 56 -40 56 -29 0 -40 -15 -40 -56 0 -19 -5
-24 -25 -24 -22 0 -25 4 -25 39 0 22 -4 43 -10 46 -14 9 -13 -78 2 -93 16 -16
180 -16 196 0 7 7 12 32 12 55 0 24 7 55 16 68 15 23 15 27 -3 62 l-18 38
-102 3 c-97 3 -103 2 -117 -20z m223 -30 c14 -39 2 -55 -27 -37 -17 10 -23 10
-36 0 -13 -11 -19 -11 -31 -1 -12 10 -18 10 -30 0 -12 -10 -18 -10 -31 1 -13
10 -19 10 -36 0 -29 -18 -40 -1 -26 37 l12 32 97 0 97 0 11 -32z m-89 -138 c0
-23 -4 -30 -20 -30 -16 0 -20 7 -20 30 0 23 4 30 20 30 16 0 20 -7 20 -30z"/>
</g>
</svg>
